<svg width="1512" height="935" viewBox="0 0 1512 935" fill="none" xmlns="http://www.w3.org/2000/svg">
<g filter="url(#filter0_b_120_3436)">
<rect width="180" height="159" transform="matrix(-1 0 0 1 1060 133)" fill="url(#paint0_linear_120_3436)" fill-opacity="0.12"/>
<rect x="-1.5" y="1.5" width="177" height="156" transform="matrix(-1 0 0 1 1057 133)" stroke="url(#paint1_linear_120_3436)" stroke-opacity="0.4" stroke-width="3"/>
</g>
<rect x="209" y="546" width="452" height="110" rx="55" fill="#F6F6F6"/>
<path d="M249.82 616.4C246.26 616.4 243.68 615.48 242.08 613.64C240.493 611.787 239.7 609.193 239.7 605.86V603.94H245.94V605.86C245.94 607.353 246.26 608.487 246.9 609.26C247.553 610.033 248.52 610.42 249.8 610.42C251.08 610.42 252.04 610.04 252.68 609.28C253.333 608.52 253.66 607.38 253.66 605.86V590.94H249.06V585.64H263.58V590.94H259.92V605.9C259.92 608.033 259.56 609.887 258.84 611.46C258.133 613.033 257.033 614.253 255.54 615.12C254.047 615.973 252.14 616.4 249.82 616.4ZM276.158 616.46C273.718 616.46 271.591 615.98 269.778 615.02C267.964 614.047 266.551 612.707 265.538 611C264.538 609.28 264.038 607.293 264.038 605.04C264.038 602.76 264.538 600.753 265.538 599.02C266.551 597.287 267.964 595.933 269.778 594.96C271.591 593.987 273.718 593.5 276.158 593.5C278.584 593.5 280.704 593.987 282.518 594.96C284.344 595.933 285.758 597.287 286.758 599.02C287.758 600.753 288.258 602.76 288.258 605.04C288.258 607.293 287.758 609.28 286.758 611C285.758 612.707 284.351 614.047 282.537 615.02C280.724 615.98 278.598 616.46 276.158 616.46ZM276.158 611.08C277.304 611.08 278.311 610.833 279.178 610.34C280.058 609.833 280.744 609.127 281.238 608.22C281.731 607.313 281.978 606.247 281.978 605.02C281.978 603.807 281.731 602.74 281.238 601.82C280.744 600.887 280.058 600.16 279.178 599.64C278.311 599.12 277.304 598.86 276.158 598.86C275.011 598.86 273.998 599.12 273.118 599.64C272.251 600.16 271.571 600.887 271.078 601.82C270.584 602.74 270.338 603.807 270.338 605.02C270.338 606.247 270.584 607.313 271.078 608.22C271.571 609.127 272.251 609.833 273.118 610.34C273.998 610.833 275.011 611.08 276.158 611.08ZM300.919 611H304.079V616H291.399V611H294.839V598.96H291.399V593.96H300.919V611ZM308.459 599.86C308.233 599.793 307.979 599.747 307.699 599.72C307.433 599.68 307.139 599.66 306.819 599.66C304.966 599.66 303.519 600.2 302.479 601.28C301.439 602.36 300.919 603.9 300.919 605.9L299.859 600.48H301.139C301.286 598.96 301.613 597.693 302.119 596.68C302.639 595.653 303.333 594.887 304.199 594.38C305.066 593.873 306.093 593.62 307.279 593.62C307.506 593.62 307.713 593.633 307.899 593.66C308.099 593.673 308.286 593.7 308.459 593.74V599.86ZM320.26 611H323.4V616H310.74V611H314.18V598.96H310.74V593.96H320.26V611ZM313.64 584.66H320.44V590.42H313.64V584.66ZM338.913 616.4C337.607 616.4 336.493 616.22 335.573 615.86C334.667 615.487 333.947 614.953 333.413 614.26C332.893 613.567 332.553 612.727 332.393 611.74H331.473L332.193 608.88C332.393 609.72 332.973 610.42 333.933 610.98C334.893 611.527 336.033 611.8 337.353 611.8C338.38 611.8 339.147 611.627 339.653 611.28C340.16 610.92 340.413 610.4 340.413 609.72C340.413 609.027 340.087 608.493 339.433 608.12C338.793 607.733 337.633 607.447 335.953 607.26C332.527 606.833 330.033 605.987 328.473 604.72C326.927 603.453 326.153 601.813 326.153 599.8C326.153 597.907 326.807 596.387 328.113 595.24C329.42 594.093 331.247 593.52 333.593 593.52C334.793 593.52 335.8 593.7 336.613 594.06C337.427 594.407 338.053 594.927 338.493 595.62C338.947 596.313 339.24 597.153 339.373 598.14H340.293L339.593 600.92C339.393 600.04 338.86 599.333 337.993 598.8C337.127 598.267 336.127 598 334.993 598C334.087 598 333.407 598.173 332.953 598.52C332.5 598.853 332.273 599.28 332.273 599.8C332.273 600.453 332.673 600.973 333.473 601.36C334.287 601.747 335.54 602.053 337.233 602.28C340.513 602.693 342.88 603.487 344.333 604.66C345.787 605.833 346.513 607.487 346.513 609.62C346.513 611.727 345.873 613.387 344.593 614.6C343.313 615.8 341.42 616.4 338.913 616.4ZM326.113 616V608.88H332.193V616H326.113ZM339.593 600.92V593.9H345.673V600.92H339.593ZM367.738 624.84C365.084 624.8 362.664 624.347 360.478 623.48C358.291 622.627 356.404 621.42 354.818 619.86C353.231 618.313 352.004 616.473 351.138 614.34C350.284 612.193 349.858 609.813 349.858 607.2C349.858 603.96 350.398 601 351.478 598.32C352.571 595.627 354.118 593.3 356.118 591.34C358.131 589.38 360.518 587.867 363.278 586.8C366.038 585.733 369.084 585.2 372.418 585.2C375.164 585.2 377.664 585.593 379.918 586.38C382.184 587.153 384.131 588.28 385.758 589.76C387.398 591.227 388.664 593 389.558 595.08C390.451 597.16 390.898 599.507 390.898 602.12L385.818 602.24C385.818 599.64 385.244 597.407 384.098 595.54C382.964 593.673 381.384 592.247 379.358 591.26C377.344 590.26 375.031 589.76 372.418 589.76C369.844 589.76 367.484 590.18 365.338 591.02C363.204 591.86 361.358 593.053 359.798 594.6C358.251 596.147 357.051 597.987 356.198 600.12C355.358 602.253 354.938 604.613 354.938 607.2C354.938 609.773 355.478 612.047 356.558 614.02C357.651 615.98 359.158 617.513 361.078 618.62C363.011 619.727 365.231 620.28 367.738 620.28C369.618 620.28 371.364 620.047 372.978 619.58C374.591 619.113 376.058 618.453 377.378 617.6L379.698 621.36C378.084 622.48 376.271 623.347 374.258 623.96C372.258 624.587 370.084 624.88 367.738 624.84ZM366.018 615.76C364.644 615.76 363.411 615.387 362.318 614.64C361.238 613.893 360.378 612.847 359.738 611.5C359.098 610.14 358.764 608.547 358.738 606.72C358.698 605.173 358.898 603.667 359.338 602.2C359.791 600.72 360.464 599.387 361.358 598.2C362.251 597.013 363.344 596.073 364.638 595.38C365.944 594.673 367.431 594.32 369.098 594.32C370.738 594.32 372.171 594.673 373.398 595.38C374.638 596.073 375.611 597.1 376.318 598.46C377.038 599.82 377.431 601.48 377.498 603.44C377.524 604.36 377.444 605.307 377.258 606.28C377.084 607.24 376.804 608.16 376.418 609.04L374.178 610.04L373.458 609.88C372.818 611.213 372.111 612.313 371.338 613.18C370.578 614.047 369.751 614.693 368.858 615.12C367.964 615.547 367.018 615.76 366.018 615.76ZM368.738 610.6C369.618 610.6 370.411 610.4 371.118 610C371.838 609.6 372.451 609.067 372.958 608.4C373.478 607.72 373.871 606.967 374.138 606.14C374.418 605.3 374.551 604.453 374.538 603.6C374.524 602.213 374.144 601.16 373.398 600.44C372.651 599.72 371.684 599.36 370.498 599.36C369.271 599.36 368.244 599.713 367.418 600.42C366.591 601.127 365.964 602.02 365.538 603.1C365.124 604.167 364.924 605.253 364.938 606.36C364.964 607.773 365.331 608.833 366.038 609.54C366.758 610.247 367.658 610.6 368.738 610.6ZM380.058 615.76C378.484 615.76 377.191 615.42 376.178 614.74C375.178 614.047 374.478 613.093 374.078 611.88C373.678 610.667 373.604 609.267 373.858 607.68L377.418 603.08L374.778 601.2L376.378 594.84H382.498L379.498 606.72C379.178 607.96 379.138 609.013 379.378 609.88C379.618 610.733 380.258 611.16 381.298 611.16C381.818 611.16 382.344 610.98 382.878 610.62C383.411 610.26 383.898 609.713 384.338 608.98C384.778 608.247 385.131 607.32 385.398 606.2C385.678 605.08 385.818 603.76 385.818 602.24L390.898 602.12C390.898 604.253 390.604 606.167 390.018 607.86C389.444 609.54 388.651 610.973 387.638 612.16C386.624 613.333 385.464 614.227 384.158 614.84C382.864 615.453 381.498 615.76 380.058 615.76ZM393.46 624.4V619.4H396.8V598.96H393.46V593.96H402.88V601.74L402.76 604.36V605.48L402.88 608.52V619.4H406.04V624.4H393.46ZM410.04 616.46C408.44 616.46 406.96 616.113 405.6 615.42C404.254 614.713 403.08 613.653 402.08 612.24C401.08 610.827 400.314 609.06 399.78 606.94L402.76 605.02C402.76 606.233 402.974 607.3 403.4 608.22C403.84 609.14 404.48 609.86 405.32 610.38C406.16 610.9 407.174 611.16 408.36 611.16C409.534 611.16 410.534 610.9 411.36 610.38C412.2 609.86 412.84 609.14 413.28 608.22C413.734 607.287 413.96 606.207 413.96 604.98C413.96 603.753 413.727 602.673 413.26 601.74C412.807 600.807 412.154 600.08 411.3 599.56C410.46 599.04 409.48 598.78 408.36 598.78C407.187 598.78 406.18 599.04 405.34 599.56C404.514 600.08 403.874 600.813 403.42 601.76C402.98 602.693 402.76 603.78 402.76 605.02L402.16 600.12H403.08C403.347 598.72 403.78 597.527 404.38 596.54C404.994 595.553 405.787 594.8 406.76 594.28C407.747 593.76 408.934 593.5 410.32 593.5C411.827 593.5 413.187 593.8 414.4 594.4C415.627 594.987 416.674 595.807 417.54 596.86C418.407 597.913 419.074 599.133 419.54 600.52C420.007 601.907 420.24 603.393 420.24 604.98C420.24 607.313 419.814 609.34 418.96 611.06C418.12 612.78 416.934 614.113 415.4 615.06C413.88 615.993 412.094 616.46 410.04 616.46ZM431.984 611H435.284V616H422.464V611H425.904V589.4H422.464V584.4H431.984V611ZM455.348 616C454.468 616 453.788 615.74 453.308 615.22C452.842 614.687 452.608 613.94 452.608 612.98V608.24L453.028 607.44L452.788 605.04L452.608 603.7V601.96C452.608 601.2 452.448 600.573 452.128 600.08C451.808 599.573 451.342 599.2 450.728 598.96C450.128 598.72 449.402 598.6 448.548 598.6C447.348 598.6 446.368 598.847 445.608 599.34C444.862 599.82 444.375 600.587 444.148 601.64L438.548 600.78C438.788 599.22 439.315 597.893 440.128 596.8C440.942 595.707 442.082 594.873 443.548 594.3C445.015 593.727 446.848 593.44 449.048 593.44C451.115 593.44 452.862 593.713 454.288 594.26C455.728 594.793 456.822 595.633 457.568 596.78C458.315 597.927 458.688 599.407 458.688 601.22V610.98H461.328V616H455.348ZM444.888 616.4C442.582 616.4 440.835 615.867 439.648 614.8C438.462 613.733 437.868 612.227 437.868 610.28C437.868 608.387 438.462 606.947 439.648 605.96C440.835 604.96 442.695 604.233 445.228 603.78L453.728 602.18V605.14L446.988 606.58C446.028 606.767 445.328 607.087 444.888 607.54C444.448 607.98 444.228 608.567 444.228 609.3C444.228 610.087 444.475 610.687 444.968 611.1C445.475 611.513 446.195 611.72 447.128 611.72C448.195 611.72 449.155 611.453 450.008 610.92C450.875 610.387 451.555 609.627 452.048 608.64C452.542 607.64 452.788 606.44 452.788 605.04L453.788 609.74H452.428C452.135 611.967 451.342 613.633 450.048 614.74C448.755 615.847 447.035 616.4 444.888 616.4ZM475.962 616.46C473.496 616.46 471.362 615.98 469.562 615.02C467.762 614.047 466.369 612.707 465.382 611C464.409 609.28 463.922 607.287 463.922 605.02C463.922 603.327 464.182 601.773 464.702 600.36C465.236 598.947 465.976 597.733 466.922 596.72C467.882 595.693 468.996 594.9 470.262 594.34C471.529 593.78 472.902 593.5 474.382 593.5C475.729 593.5 476.842 593.733 477.722 594.2C478.602 594.653 479.276 595.313 479.742 596.18C480.209 597.047 480.496 598.1 480.602 599.34H481.902L480.822 603.1C480.702 602.193 480.422 601.407 479.982 600.74C479.556 600.06 478.982 599.533 478.262 599.16C477.556 598.787 476.736 598.6 475.802 598.6C474.669 598.6 473.676 598.867 472.822 599.4C471.982 599.933 471.329 600.673 470.862 601.62C470.396 602.567 470.162 603.673 470.162 604.94C470.162 606.153 470.396 607.227 470.862 608.16C471.342 609.08 472.016 609.8 472.882 610.32C473.762 610.827 474.809 611.08 476.022 611.08C477.289 611.08 478.356 610.807 479.222 610.26C480.102 609.713 480.702 608.973 481.022 608.04L486.922 610.02C486.256 612.02 484.956 613.593 483.022 614.74C481.089 615.887 478.736 616.46 475.962 616.46ZM480.822 603.1V593.96H486.902V603.1H480.822ZM502.052 616.46C499.612 616.46 497.499 615.98 495.712 615.02C493.939 614.047 492.572 612.707 491.612 611C490.652 609.28 490.172 607.293 490.172 605.04C490.172 602.773 490.652 600.773 491.612 599.04C492.572 597.293 493.926 595.933 495.672 594.96C497.419 593.987 499.479 593.5 501.852 593.5C504.226 593.5 506.272 593.987 507.992 594.96C509.726 595.933 511.059 597.287 511.992 599.02C512.926 600.753 513.392 602.767 513.392 605.06C513.392 605.433 513.392 605.753 513.392 606.02C513.392 606.287 513.379 606.52 513.352 606.72H507.352C507.392 606.427 507.412 606.127 507.412 605.82C507.426 605.513 507.432 605.167 507.432 604.78C507.432 603.553 507.219 602.48 506.792 601.56C506.366 600.627 505.739 599.907 504.912 599.4C504.099 598.88 503.112 598.62 501.952 598.62C500.832 598.62 499.852 598.887 499.012 599.42C498.172 599.94 497.519 600.687 497.052 601.66C496.599 602.62 496.372 603.747 496.372 605.04C496.372 606.227 496.606 607.273 497.072 608.18C497.539 609.087 498.192 609.8 499.032 610.32C499.886 610.827 500.906 611.08 502.092 611.08C503.306 611.08 504.346 610.813 505.212 610.28C506.092 609.733 506.746 609.007 507.172 608.1L513.052 609.82C512.226 611.873 510.846 613.493 508.912 614.68C506.992 615.867 504.706 616.46 502.052 616.46ZM494.032 606.72V602.98H509.772L510.432 606.72H494.032ZM525.158 608.82C525.158 609.54 525.284 610.08 525.538 610.44C525.804 610.8 526.184 610.98 526.678 610.98C527.171 610.98 527.544 610.8 527.798 610.44C528.064 610.067 528.198 609.527 528.198 608.82V606.72H533.418V608.78C533.418 610.353 533.171 611.713 532.678 612.86C532.184 613.993 531.411 614.867 530.358 615.48C529.304 616.093 527.944 616.4 526.278 616.4C524.611 616.4 523.244 616.087 522.178 615.46C521.124 614.833 520.344 613.953 519.838 612.82C519.331 611.687 519.078 610.353 519.078 608.82V598.98H515.658V593.96H519.078V588.18H525.158V593.96H533.198L533.158 598.98H525.158V608.82ZM545.001 608.82C545.001 609.54 545.128 610.08 545.381 610.44C545.648 610.8 546.028 610.98 546.521 610.98C547.015 610.98 547.388 610.8 547.641 610.44C547.908 610.067 548.041 609.527 548.041 608.82V606.72H553.261V608.78C553.261 610.353 553.015 611.713 552.521 612.86C552.028 613.993 551.255 614.867 550.201 615.48C549.148 616.093 547.788 616.4 546.121 616.4C544.455 616.4 543.088 616.087 542.021 615.46C540.968 614.833 540.188 613.953 539.681 612.82C539.175 611.687 538.921 610.353 538.921 608.82V598.98H535.501V593.96H538.921V588.18H545.001V593.96H553.041L553.001 598.98H545.001V608.82ZM568.185 616.46C565.745 616.46 563.632 615.98 561.845 615.02C560.072 614.047 558.705 612.707 557.745 611C556.785 609.28 556.305 607.293 556.305 605.04C556.305 602.773 556.785 600.773 557.745 599.04C558.705 597.293 560.058 595.933 561.805 594.96C563.552 593.987 565.612 593.5 567.985 593.5C570.358 593.5 572.405 593.987 574.125 594.96C575.858 595.933 577.192 597.287 578.125 599.02C579.058 600.753 579.525 602.767 579.525 605.06C579.525 605.433 579.525 605.753 579.525 606.02C579.525 606.287 579.512 606.52 579.485 606.72H573.485C573.525 606.427 573.545 606.127 573.545 605.82C573.558 605.513 573.565 605.167 573.565 604.78C573.565 603.553 573.352 602.48 572.925 601.56C572.498 600.627 571.872 599.907 571.045 599.4C570.232 598.88 569.245 598.62 568.085 598.62C566.965 598.62 565.985 598.887 565.145 599.42C564.305 599.94 563.652 600.687 563.185 601.66C562.732 602.62 562.505 603.747 562.505 605.04C562.505 606.227 562.738 607.273 563.205 608.18C563.672 609.087 564.325 609.8 565.165 610.32C566.018 610.827 567.038 611.08 568.225 611.08C569.438 611.08 570.478 610.813 571.345 610.28C572.225 609.733 572.878 609.007 573.305 608.1L579.185 609.82C578.358 611.873 576.978 613.493 575.045 614.68C573.125 615.867 570.838 616.46 568.185 616.46ZM560.165 606.72V602.98H575.905L576.565 606.72H560.165ZM581.85 609.28H588.87V616H581.85V609.28ZM592.845 616V611H596.745V598.96H592.845V593.96H596.745V592.08C596.745 589.56 597.418 587.573 598.765 586.12C600.125 584.667 602.298 583.94 605.285 583.94C607.631 583.94 609.451 584.413 610.745 585.36C612.038 586.293 612.878 587.713 613.265 589.62L608.225 590.78C608.065 590.087 607.758 589.567 607.305 589.22C606.865 588.873 606.291 588.7 605.585 588.7C604.691 588.7 604.005 588.98 603.525 589.54C603.058 590.087 602.825 590.933 602.825 592.08V593.96H610.085V598.96H602.825V611H607.865V616H592.845ZM621.935 611H625.095V616H612.415V611H615.855V598.96H612.415V593.96H621.935V611ZM629.475 599.86C629.248 599.793 628.995 599.747 628.715 599.72C628.448 599.68 628.155 599.66 627.835 599.66C625.982 599.66 624.535 600.2 623.495 601.28C622.455 602.36 621.935 603.9 621.935 605.9L620.875 600.48H622.155C622.302 598.96 622.628 597.693 623.135 596.68C623.655 595.653 624.348 594.887 625.215 594.38C626.082 593.873 627.108 593.62 628.295 593.62C628.522 593.62 628.728 593.633 628.915 593.66C629.115 593.673 629.302 593.7 629.475 593.74V599.86Z" fill="black"/>
<rect x="766" y="730" width="398" height="110" rx="55" fill="#F6F6F6"/>
<path d="M797.08 777.96H807.12V801.72C807.12 803.92 806.52 805.66 805.32 806.94C804.12 808.22 802.173 808.86 799.48 808.86C797.307 808.86 795.647 808.413 794.5 807.52C793.353 806.627 792.627 805.3 792.32 803.54L797.34 802.4C797.487 802.947 797.7 803.36 797.98 803.64C798.273 803.92 798.68 804.06 799.2 804.06C799.813 804.06 800.273 803.86 800.58 803.46C800.887 803.073 801.04 802.493 801.04 801.72V782.96H797.08V777.96ZM800.52 768.66H807.32V774.42H800.52V768.66ZM823.743 800.46C821.303 800.46 819.177 799.98 817.363 799.02C815.55 798.047 814.137 796.707 813.123 795C812.123 793.28 811.623 791.293 811.623 789.04C811.623 786.76 812.123 784.753 813.123 783.02C814.137 781.287 815.55 779.933 817.363 778.96C819.177 777.987 821.303 777.5 823.743 777.5C826.17 777.5 828.29 777.987 830.103 778.96C831.93 779.933 833.343 781.287 834.343 783.02C835.343 784.753 835.843 786.76 835.843 789.04C835.843 791.293 835.343 793.28 834.343 795C833.343 796.707 831.937 798.047 830.123 799.02C828.31 799.98 826.183 800.46 823.743 800.46ZM823.743 795.08C824.89 795.08 825.897 794.833 826.763 794.34C827.643 793.833 828.33 793.127 828.823 792.22C829.317 791.313 829.563 790.247 829.563 789.02C829.563 787.807 829.317 786.74 828.823 785.82C828.33 784.887 827.643 784.16 826.763 783.64C825.897 783.12 824.89 782.86 823.743 782.86C822.597 782.86 821.583 783.12 820.703 783.64C819.837 784.16 819.157 784.887 818.663 785.82C818.17 786.74 817.923 787.807 817.923 789.02C817.923 790.247 818.17 791.313 818.663 792.22C819.157 793.127 819.837 793.833 820.703 794.34C821.583 794.833 822.597 795.08 823.743 795.08ZM848.505 795H851.665V800H838.985V795H842.425V782.96H838.985V777.96H848.505V795ZM856.045 783.86C855.819 783.793 855.565 783.747 855.285 783.72C855.019 783.68 854.725 783.66 854.405 783.66C852.552 783.66 851.105 784.2 850.065 785.28C849.025 786.36 848.505 787.9 848.505 789.9L847.445 784.48H848.725C848.872 782.96 849.199 781.693 849.705 780.68C850.225 779.653 850.919 778.887 851.785 778.38C852.652 777.873 853.679 777.62 854.865 777.62C855.092 777.62 855.299 777.633 855.485 777.66C855.685 777.673 855.872 777.7 856.045 777.74V783.86ZM867.846 795H870.986V800H858.326V795H861.766V782.96H858.326V777.96H867.846V795ZM861.226 768.66H868.026V774.42H861.226V768.66ZM886.499 800.4C885.193 800.4 884.079 800.22 883.159 799.86C882.253 799.487 881.533 798.953 880.999 798.26C880.479 797.567 880.139 796.727 879.979 795.74H879.059L879.779 792.88C879.979 793.72 880.559 794.42 881.519 794.98C882.479 795.527 883.619 795.8 884.939 795.8C885.966 795.8 886.733 795.627 887.239 795.28C887.746 794.92 887.999 794.4 887.999 793.72C887.999 793.027 887.673 792.493 887.019 792.12C886.379 791.733 885.219 791.447 883.539 791.26C880.113 790.833 877.619 789.987 876.059 788.72C874.513 787.453 873.739 785.813 873.739 783.8C873.739 781.907 874.393 780.387 875.699 779.24C877.006 778.093 878.833 777.52 881.179 777.52C882.379 777.52 883.386 777.7 884.199 778.06C885.013 778.407 885.639 778.927 886.079 779.62C886.533 780.313 886.826 781.153 886.959 782.14H887.879L887.179 784.92C886.979 784.04 886.446 783.333 885.579 782.8C884.713 782.267 883.713 782 882.579 782C881.673 782 880.993 782.173 880.539 782.52C880.086 782.853 879.859 783.28 879.859 783.8C879.859 784.453 880.259 784.973 881.059 785.36C881.873 785.747 883.126 786.053 884.819 786.28C888.099 786.693 890.466 787.487 891.919 788.66C893.373 789.833 894.099 791.487 894.099 793.62C894.099 795.727 893.459 797.387 892.179 798.6C890.899 799.8 889.006 800.4 886.499 800.4ZM873.699 800V792.88H879.779V800H873.699ZM887.179 784.92V777.9H893.259V784.92H887.179ZM896.945 808.4V803.4H900.285V782.96H896.945V777.96H906.365V785.74L906.245 788.36V789.48L906.365 792.52V803.4H909.525V808.4H896.945ZM913.525 800.46C911.925 800.46 910.445 800.113 909.085 799.42C907.738 798.713 906.565 797.653 905.565 796.24C904.565 794.827 903.798 793.06 903.265 790.94L906.245 789.02C906.245 790.233 906.458 791.3 906.885 792.22C907.325 793.14 907.965 793.86 908.805 794.38C909.645 794.9 910.658 795.16 911.845 795.16C913.018 795.16 914.018 794.9 914.845 794.38C915.685 793.86 916.325 793.14 916.765 792.22C917.218 791.287 917.445 790.207 917.445 788.98C917.445 787.753 917.211 786.673 916.745 785.74C916.291 784.807 915.638 784.08 914.785 783.56C913.945 783.04 912.965 782.78 911.845 782.78C910.671 782.78 909.665 783.04 908.825 783.56C907.998 784.08 907.358 784.813 906.905 785.76C906.465 786.693 906.245 787.78 906.245 789.02L905.645 784.12H906.565C906.831 782.72 907.265 781.527 907.865 780.54C908.478 779.553 909.271 778.8 910.245 778.28C911.231 777.76 912.418 777.5 913.805 777.5C915.311 777.5 916.671 777.8 917.885 778.4C919.111 778.987 920.158 779.807 921.025 780.86C921.891 781.913 922.558 783.133 923.025 784.52C923.491 785.907 923.725 787.393 923.725 788.98C923.725 791.313 923.298 793.34 922.445 795.06C921.605 796.78 920.418 798.113 918.885 799.06C917.365 799.993 915.578 800.46 913.525 800.46ZM935.468 795H938.768V800H925.948V795H929.388V773.4H925.948V768.4H935.468V795ZM958.833 800C957.953 800 957.273 799.74 956.793 799.22C956.326 798.687 956.093 797.94 956.093 796.98V792.24L956.513 791.44L956.273 789.04L956.093 787.7V785.96C956.093 785.2 955.933 784.573 955.613 784.08C955.293 783.573 954.826 783.2 954.213 782.96C953.613 782.72 952.886 782.6 952.033 782.6C950.833 782.6 949.853 782.847 949.093 783.34C948.346 783.82 947.859 784.587 947.633 785.64L942.033 784.78C942.273 783.22 942.799 781.893 943.613 780.8C944.426 779.707 945.566 778.873 947.033 778.3C948.499 777.727 950.333 777.44 952.533 777.44C954.599 777.44 956.346 777.713 957.773 778.26C959.213 778.793 960.306 779.633 961.053 780.78C961.799 781.927 962.173 783.407 962.173 785.22V794.98H964.813V800H958.833ZM948.373 800.4C946.066 800.4 944.319 799.867 943.133 798.8C941.946 797.733 941.353 796.227 941.353 794.28C941.353 792.387 941.946 790.947 943.133 789.96C944.319 788.96 946.179 788.233 948.713 787.78L957.213 786.18V789.14L950.473 790.58C949.513 790.767 948.813 791.087 948.373 791.54C947.933 791.98 947.713 792.567 947.713 793.3C947.713 794.087 947.959 794.687 948.453 795.1C948.959 795.513 949.679 795.72 950.613 795.72C951.679 795.72 952.639 795.453 953.493 794.92C954.359 794.387 955.039 793.627 955.533 792.64C956.026 791.64 956.273 790.44 956.273 789.04L957.273 793.74H955.913C955.619 795.967 954.826 797.633 953.533 798.74C952.239 799.847 950.519 800.4 948.373 800.4ZM979.447 800.46C976.98 800.46 974.847 799.98 973.047 799.02C971.247 798.047 969.853 796.707 968.867 795C967.893 793.28 967.407 791.287 967.407 789.02C967.407 787.327 967.667 785.773 968.187 784.36C968.72 782.947 969.46 781.733 970.407 780.72C971.367 779.693 972.48 778.9 973.747 778.34C975.013 777.78 976.387 777.5 977.867 777.5C979.213 777.5 980.327 777.733 981.207 778.2C982.087 778.653 982.76 779.313 983.227 780.18C983.693 781.047 983.98 782.1 984.087 783.34H985.387L984.307 787.1C984.187 786.193 983.907 785.407 983.467 784.74C983.04 784.06 982.467 783.533 981.747 783.16C981.04 782.787 980.22 782.6 979.287 782.6C978.153 782.6 977.16 782.867 976.307 783.4C975.467 783.933 974.813 784.673 974.347 785.62C973.88 786.567 973.647 787.673 973.647 788.94C973.647 790.153 973.88 791.227 974.347 792.16C974.827 793.08 975.5 793.8 976.367 794.32C977.247 794.827 978.293 795.08 979.507 795.08C980.773 795.08 981.84 794.807 982.707 794.26C983.587 793.713 984.187 792.973 984.507 792.04L990.407 794.02C989.74 796.02 988.44 797.593 986.507 798.74C984.573 799.887 982.22 800.46 979.447 800.46ZM984.307 787.1V777.96H990.387V787.1H984.307ZM1005.54 800.46C1003.1 800.46 1000.98 799.98 999.197 799.02C997.423 798.047 996.057 796.707 995.097 795C994.137 793.28 993.657 791.293 993.657 789.04C993.657 786.773 994.137 784.773 995.097 783.04C996.057 781.293 997.41 779.933 999.157 778.96C1000.9 777.987 1002.96 777.5 1005.34 777.5C1007.71 777.5 1009.76 777.987 1011.48 778.96C1013.21 779.933 1014.54 781.287 1015.48 783.02C1016.41 784.753 1016.88 786.767 1016.88 789.06C1016.88 789.433 1016.88 789.753 1016.88 790.02C1016.88 790.287 1016.86 790.52 1016.84 790.72H1010.84C1010.88 790.427 1010.9 790.127 1010.9 789.82C1010.91 789.513 1010.92 789.167 1010.92 788.78C1010.92 787.553 1010.7 786.48 1010.28 785.56C1009.85 784.627 1009.22 783.907 1008.4 783.4C1007.58 782.88 1006.6 782.62 1005.44 782.62C1004.32 782.62 1003.34 782.887 1002.5 783.42C1001.66 783.94 1001 784.687 1000.54 785.66C1000.08 786.62 999.857 787.747 999.857 789.04C999.857 790.227 1000.09 791.273 1000.56 792.18C1001.02 793.087 1001.68 793.8 1002.52 794.32C1003.37 794.827 1004.39 795.08 1005.58 795.08C1006.79 795.08 1007.83 794.813 1008.7 794.28C1009.58 793.733 1010.23 793.007 1010.66 792.1L1016.54 793.82C1015.71 795.873 1014.33 797.493 1012.4 798.68C1010.48 799.867 1008.19 800.46 1005.54 800.46ZM997.517 790.72V786.98H1013.26L1013.92 790.72H997.517ZM1028.64 792.82C1028.64 793.54 1028.77 794.08 1029.02 794.44C1029.29 794.8 1029.67 794.98 1030.16 794.98C1030.66 794.98 1031.03 794.8 1031.28 794.44C1031.55 794.067 1031.68 793.527 1031.68 792.82V790.72H1036.9V792.78C1036.9 794.353 1036.66 795.713 1036.16 796.86C1035.67 797.993 1034.9 798.867 1033.84 799.48C1032.79 800.093 1031.43 800.4 1029.76 800.4C1028.1 800.4 1026.73 800.087 1025.66 799.46C1024.61 798.833 1023.83 797.953 1023.32 796.82C1022.82 795.687 1022.56 794.353 1022.56 792.82V782.98H1019.14V777.96H1022.56V772.18H1028.64V777.96H1036.68L1036.64 782.98H1028.64V792.82ZM1048.49 792.82C1048.49 793.54 1048.61 794.08 1048.87 794.44C1049.13 794.8 1049.51 794.98 1050.01 794.98C1050.5 794.98 1050.87 794.8 1051.13 794.44C1051.39 794.067 1051.53 793.527 1051.53 792.82V790.72H1056.75V792.78C1056.75 794.353 1056.5 795.713 1056.01 796.86C1055.51 797.993 1054.74 798.867 1053.69 799.48C1052.63 800.093 1051.27 800.4 1049.61 800.4C1047.94 800.4 1046.57 800.087 1045.51 799.46C1044.45 798.833 1043.67 797.953 1043.17 796.82C1042.66 795.687 1042.41 794.353 1042.41 792.82V782.98H1038.99V777.96H1042.41V772.18H1048.49V777.96H1056.53L1056.49 782.98H1048.49V792.82ZM1071.67 800.46C1069.23 800.46 1067.12 799.98 1065.33 799.02C1063.56 798.047 1062.19 796.707 1061.23 795C1060.27 793.28 1059.79 791.293 1059.79 789.04C1059.79 786.773 1060.27 784.773 1061.23 783.04C1062.19 781.293 1063.54 779.933 1065.29 778.96C1067.04 777.987 1069.1 777.5 1071.47 777.5C1073.84 777.5 1075.89 777.987 1077.61 778.96C1079.34 779.933 1080.68 781.287 1081.61 783.02C1082.54 784.753 1083.01 786.767 1083.01 789.06C1083.01 789.433 1083.01 789.753 1083.01 790.02C1083.01 790.287 1083 790.52 1082.97 790.72H1076.97C1077.01 790.427 1077.03 790.127 1077.03 789.82C1077.04 789.513 1077.05 789.167 1077.05 788.78C1077.05 787.553 1076.84 786.48 1076.41 785.56C1075.98 784.627 1075.36 783.907 1074.53 783.4C1073.72 782.88 1072.73 782.62 1071.57 782.62C1070.45 782.62 1069.47 782.887 1068.63 783.42C1067.79 783.94 1067.14 784.687 1066.67 785.66C1066.22 786.62 1065.99 787.747 1065.99 789.04C1065.99 790.227 1066.22 791.273 1066.69 792.18C1067.16 793.087 1067.81 793.8 1068.65 794.32C1069.5 794.827 1070.52 795.08 1071.71 795.08C1072.92 795.08 1073.96 794.813 1074.83 794.28C1075.71 793.733 1076.36 793.007 1076.79 792.1L1082.67 793.82C1081.84 795.873 1080.46 797.493 1078.53 798.68C1076.61 799.867 1074.32 800.46 1071.67 800.46ZM1063.65 790.72V786.98H1079.39L1080.05 790.72H1063.65ZM1085.33 793.28H1092.35V800H1085.33V793.28ZM1096.33 800V795H1100.23V782.96H1096.33V777.96H1100.23V776.08C1100.23 773.56 1100.9 771.573 1102.25 770.12C1103.61 768.667 1105.78 767.94 1108.77 767.94C1111.12 767.94 1112.94 768.413 1114.23 769.36C1115.52 770.293 1116.36 771.713 1116.75 773.62L1111.71 774.78C1111.55 774.087 1111.24 773.567 1110.79 773.22C1110.35 772.873 1109.78 772.7 1109.07 772.7C1108.18 772.7 1107.49 772.98 1107.01 773.54C1106.54 774.087 1106.31 774.933 1106.31 776.08V777.96H1113.57V782.96H1106.31V795H1111.35V800H1096.33ZM1125.42 795H1128.58V800H1115.9V795H1119.34V782.96H1115.9V777.96H1125.42V795ZM1132.96 783.86C1132.73 783.793 1132.48 783.747 1132.2 783.72C1131.93 783.68 1131.64 783.66 1131.32 783.66C1129.47 783.66 1128.02 784.2 1126.98 785.28C1125.94 786.36 1125.42 787.9 1125.42 789.9L1124.36 784.48H1125.64C1125.79 782.96 1126.11 781.693 1126.62 780.68C1127.14 779.653 1127.83 778.887 1128.7 778.38C1129.57 777.873 1130.59 777.62 1131.78 777.62C1132.01 777.62 1132.21 777.633 1132.4 777.66C1132.6 777.673 1132.79 777.7 1132.96 777.74V783.86Z" fill="black"/>
<rect x="915.5" y="270" width="508" height="110" rx="55" fill="#F6F6F6"/>
<path d="M954.26 334.32V327.88H947.84V323.24H954.26V316.8H959.44V323.24H965.88L965.86 327.88H959.44V334.32H954.26ZM968.981 330.58L975.041 329.78C975.321 331.42 975.941 332.707 976.901 333.64C977.861 334.56 979.148 335.02 980.761 335.02C981.761 335.02 982.614 334.847 983.321 334.5C984.028 334.153 984.574 333.68 984.961 333.08C985.348 332.467 985.541 331.76 985.541 330.96C985.541 330.027 985.281 329.213 984.761 328.52C984.241 327.827 983.514 327.293 982.581 326.92C981.648 326.547 980.541 326.36 979.261 326.36V323.3C981.941 323.3 984.228 323.633 986.121 324.3C988.014 324.953 989.461 325.913 990.461 327.18C991.461 328.433 991.961 329.967 991.961 331.78C991.961 333.5 991.541 335.013 990.701 336.32C989.861 337.613 988.621 338.627 986.981 339.36C985.341 340.093 983.328 340.46 980.941 340.46C977.328 340.46 974.548 339.6 972.601 337.88C970.654 336.16 969.448 333.727 968.981 330.58ZM969.661 318.7C969.874 315.567 970.921 313.193 972.801 311.58C974.681 309.953 977.268 309.14 980.561 309.14C982.761 309.14 984.641 309.473 986.201 310.14C987.761 310.793 988.961 311.727 989.801 312.94C990.641 314.14 991.061 315.54 991.061 317.14C991.061 318.793 990.588 320.22 989.641 321.42C988.694 322.607 987.334 323.52 985.561 324.16C983.801 324.8 981.701 325.113 979.261 325.1V322.04C980.328 322.04 981.261 321.873 982.061 321.54C982.874 321.207 983.501 320.74 983.941 320.14C984.394 319.54 984.621 318.84 984.621 318.04C984.621 317.347 984.454 316.74 984.121 316.22C983.788 315.7 983.308 315.293 982.681 315C982.054 314.693 981.301 314.54 980.421 314.54C979.048 314.54 977.961 314.913 977.161 315.66C976.374 316.407 975.914 317.54 975.781 319.06L969.661 318.7ZM977.461 322.04H979.261V326.36H977.461V322.04ZM994.684 330.58L1000.74 329.78C1001.02 331.42 1001.64 332.707 1002.6 333.64C1003.56 334.56 1004.85 335.02 1006.46 335.02C1007.46 335.02 1008.32 334.847 1009.02 334.5C1009.73 334.153 1010.28 333.68 1010.66 333.08C1011.05 332.467 1011.24 331.76 1011.24 330.96C1011.24 330.027 1010.98 329.213 1010.46 328.52C1009.94 327.827 1009.22 327.293 1008.28 326.92C1007.35 326.547 1006.24 326.36 1004.96 326.36V323.3C1007.64 323.3 1009.93 323.633 1011.82 324.3C1013.72 324.953 1015.16 325.913 1016.16 327.18C1017.16 328.433 1017.66 329.967 1017.66 331.78C1017.66 333.5 1017.24 335.013 1016.4 336.32C1015.56 337.613 1014.32 338.627 1012.68 339.36C1011.04 340.093 1009.03 340.46 1006.64 340.46C1003.03 340.46 1000.25 339.6 998.304 337.88C996.357 336.16 995.151 333.727 994.684 330.58ZM995.364 318.7C995.577 315.567 996.624 313.193 998.504 311.58C1000.38 309.953 1002.97 309.14 1006.26 309.14C1008.46 309.14 1010.34 309.473 1011.9 310.14C1013.46 310.793 1014.66 311.727 1015.5 312.94C1016.34 314.14 1016.76 315.54 1016.76 317.14C1016.76 318.793 1016.29 320.22 1015.34 321.42C1014.4 322.607 1013.04 323.52 1011.26 324.16C1009.5 324.8 1007.4 325.113 1004.96 325.1V322.04C1006.03 322.04 1006.96 321.873 1007.76 321.54C1008.58 321.207 1009.2 320.74 1009.64 320.14C1010.1 319.54 1010.32 318.84 1010.32 318.04C1010.32 317.347 1010.16 316.74 1009.82 316.22C1009.49 315.7 1009.01 315.293 1008.38 315C1007.76 314.693 1007 314.54 1006.12 314.54C1004.75 314.54 1003.66 314.913 1002.86 315.66C1002.08 316.407 1001.62 317.54 1001.48 319.06L995.364 318.7ZM1003.16 322.04H1004.96V326.36H1003.16V322.04ZM1038.83 324.82C1038.83 328.073 1039.14 330.993 1039.75 333.58C1040.36 336.153 1041.16 338.38 1042.13 340.26C1043.1 342.153 1044.12 343.687 1045.19 344.86H1038.85C1037.22 342.553 1035.88 339.72 1034.83 336.36C1033.78 332.987 1033.25 329.14 1033.25 324.82C1033.25 320.5 1033.8 316.653 1034.89 313.28C1035.98 309.907 1037.38 307.073 1039.09 304.78H1045.19C1044.12 305.953 1043.1 307.487 1042.13 309.38C1041.16 311.26 1040.36 313.493 1039.75 316.08C1039.14 318.653 1038.83 321.567 1038.83 324.82ZM1059.55 340.48C1056.93 340.48 1054.7 339.853 1052.85 338.6C1050.99 337.347 1049.58 335.547 1048.61 333.2C1047.63 330.853 1047.15 328.04 1047.15 324.76C1047.15 321.52 1047.63 318.733 1048.61 316.4C1049.58 314.067 1050.99 312.28 1052.85 311.04C1054.7 309.787 1056.93 309.16 1059.55 309.16C1062.17 309.16 1064.41 309.787 1066.25 311.04C1068.1 312.28 1069.51 314.067 1070.49 316.4C1071.46 318.733 1071.95 321.52 1071.95 324.76C1071.95 328.04 1071.46 330.853 1070.49 333.2C1069.51 335.547 1068.1 337.347 1066.25 338.6C1064.41 339.853 1062.17 340.48 1059.55 340.48ZM1059.55 334.56C1061.55 334.56 1063.06 333.707 1064.09 332C1065.11 330.293 1065.63 327.88 1065.63 324.76C1065.63 321.653 1065.11 319.267 1064.09 317.6C1063.06 315.92 1061.55 315.08 1059.55 315.08C1057.55 315.08 1056.03 315.92 1055.01 317.6C1053.98 319.267 1053.47 321.653 1053.47 324.76C1053.47 327.88 1053.98 330.293 1055.01 332C1056.03 333.707 1057.55 334.56 1059.55 334.56ZM1080.24 324.82C1080.24 321.567 1079.93 318.653 1079.32 316.08C1078.71 313.493 1077.91 311.26 1076.94 309.38C1075.97 307.487 1074.95 305.953 1073.88 304.78H1079.98C1081.7 307.073 1083.1 309.907 1084.18 313.28C1085.26 316.653 1085.8 320.5 1085.8 324.82C1085.8 329.14 1085.27 332.987 1084.22 336.36C1083.18 339.72 1081.84 342.553 1080.2 344.86H1073.88C1074.95 343.687 1075.97 342.153 1076.94 340.26C1077.91 338.38 1078.71 336.153 1079.32 333.58C1079.93 330.993 1080.24 328.073 1080.24 324.82ZM1113.96 334.66C1114.97 334.66 1115.87 334.473 1116.66 334.1C1117.46 333.727 1118.08 333.187 1118.52 332.48C1118.97 331.76 1119.2 330.9 1119.2 329.9C1119.2 328.913 1118.98 328.053 1118.54 327.32C1118.1 326.587 1117.49 326.02 1116.7 325.62C1115.93 325.22 1115.03 325.02 1114.02 325.02C1113.01 325.02 1112.11 325.213 1111.34 325.6C1110.58 325.987 1109.98 326.54 1109.54 327.26C1109.1 327.98 1108.88 328.833 1108.88 329.82L1108.28 329.24L1107.64 328.44H1108.44L1108.48 328.16C1108.73 326.453 1109.17 325.013 1109.8 323.84C1110.44 322.653 1111.29 321.76 1112.36 321.16C1113.43 320.56 1114.73 320.26 1116.26 320.26C1118.09 320.26 1119.71 320.687 1121.14 321.54C1122.58 322.38 1123.71 323.547 1124.52 325.04C1125.33 326.533 1125.74 328.24 1125.74 330.16C1125.74 332.2 1125.27 333.993 1124.32 335.54C1123.37 337.087 1122.02 338.287 1120.26 339.14C1118.51 339.993 1116.43 340.42 1114 340.42L1113.96 334.66ZM1114 340.42C1111.23 340.42 1108.96 339.833 1107.2 338.66C1105.44 337.487 1104.1 335.86 1103.18 333.78C1102.66 332.567 1102.27 331.213 1102 329.72C1101.73 328.213 1101.6 326.58 1101.6 324.82C1101.6 321.553 1102.05 318.753 1102.96 316.42C1103.87 314.073 1105.25 312.28 1107.12 311.04C1109 309.787 1111.39 309.16 1114.28 309.16C1117.05 309.16 1119.39 309.74 1121.3 310.9C1123.21 312.047 1124.65 313.727 1125.62 315.94L1119.68 318.5C1119.16 317.38 1118.45 316.547 1117.56 316C1116.68 315.44 1115.59 315.16 1114.28 315.16C1112.73 315.16 1111.49 315.547 1110.56 316.32C1109.63 317.093 1108.95 318.207 1108.54 319.66C1108.13 321.1 1107.92 322.847 1107.92 324.9C1107.92 325.58 1107.95 326.24 1108.02 326.88C1108.09 327.52 1108.19 328.167 1108.34 328.82L1108.88 329.82C1108.88 330.807 1109.08 331.667 1109.48 332.4C1109.88 333.12 1110.46 333.68 1111.22 334.08C1111.99 334.467 1112.91 334.66 1113.96 334.66L1114 340.42ZM1141.44 333.62L1147.54 331.64C1147.96 332.613 1148.59 333.353 1149.44 333.86C1150.31 334.367 1151.33 334.62 1152.5 334.62C1153.56 334.62 1154.49 334.413 1155.3 334C1156.13 333.573 1156.78 332.98 1157.24 332.22C1157.71 331.46 1157.94 330.573 1157.94 329.56C1157.94 328.52 1157.71 327.627 1157.24 326.88C1156.79 326.12 1156.16 325.533 1155.34 325.12C1154.54 324.693 1153.61 324.48 1152.54 324.48C1151.29 324.48 1150.16 324.793 1149.16 325.42C1148.16 326.047 1147.5 326.92 1147.18 328.04L1146.88 325.2L1147.8 325.28C1148.07 323.947 1148.48 322.82 1149.04 321.9C1149.6 320.98 1150.34 320.287 1151.24 319.82C1152.16 319.34 1153.29 319.1 1154.62 319.1C1156.5 319.1 1158.18 319.547 1159.66 320.44C1161.16 321.32 1162.33 322.547 1163.18 324.12C1164.05 325.68 1164.48 327.473 1164.48 329.5C1164.48 331.687 1163.98 333.6 1162.96 335.24C1161.96 336.867 1160.56 338.133 1158.76 339.04C1156.98 339.947 1154.9 340.4 1152.54 340.4C1149.77 340.4 1147.42 339.8 1145.48 338.6C1143.56 337.4 1142.22 335.74 1141.44 333.62ZM1149.98 309.64L1147.18 328.04L1141.26 327L1143.74 309.64H1149.98ZM1147.26 314.94V309.64H1162.4V314.94H1147.26ZM1191.97 331.34C1191.97 334.327 1191.31 336.58 1189.99 338.1C1188.67 339.62 1186.8 340.38 1184.37 340.38C1183.61 340.38 1182.9 340.307 1182.23 340.16C1181.58 340.027 1180.95 339.867 1180.35 339.68C1179.75 339.493 1179.17 339.333 1178.61 339.2C1178.07 339.053 1177.51 338.98 1176.95 338.98C1176.45 338.98 1175.93 339.06 1175.41 339.22C1174.89 339.367 1174.4 339.627 1173.93 340H1171.65L1172.75 334.22L1174.25 335.34C1174.76 334.74 1175.35 334.3 1176.01 334.02C1176.68 333.727 1177.43 333.58 1178.25 333.58C1178.76 333.58 1179.22 333.633 1179.63 333.74C1180.05 333.847 1180.44 333.973 1180.81 334.12C1181.19 334.253 1181.57 334.373 1181.95 334.48C1182.35 334.573 1182.77 334.62 1183.21 334.62C1184.12 334.62 1184.78 334.373 1185.19 333.88C1185.62 333.387 1185.83 332.54 1185.83 331.34H1191.97ZM1179.73 324.3C1181.15 323.327 1182.23 322.407 1182.99 321.54C1183.77 320.673 1184.15 319.707 1184.15 318.64C1184.15 317.933 1183.98 317.293 1183.63 316.72C1183.29 316.133 1182.78 315.673 1182.11 315.34C1181.45 314.993 1180.63 314.82 1179.67 314.82C1178.15 314.82 1176.95 315.253 1176.07 316.12C1175.19 316.973 1174.71 318.153 1174.61 319.66L1168.37 319.3C1168.48 317.193 1169.01 315.387 1169.97 313.88C1170.95 312.36 1172.27 311.193 1173.93 310.38C1175.6 309.567 1177.55 309.16 1179.79 309.16C1182.05 309.16 1183.99 309.573 1185.61 310.4C1187.24 311.213 1188.49 312.32 1189.35 313.72C1190.22 315.12 1190.65 316.687 1190.65 318.42C1190.65 319.807 1190.36 321.12 1189.77 322.36C1189.19 323.6 1188.3 324.773 1187.11 325.88C1185.93 326.973 1184.42 327.993 1182.59 328.94L1177.87 332C1176.75 332.573 1175.82 333.213 1175.07 333.92C1174.34 334.613 1173.79 335.453 1173.43 336.44C1173.07 337.413 1172.89 338.6 1172.89 340H1167.89V338.98C1167.89 337.1 1168.15 335.453 1168.65 334.04C1169.16 332.613 1169.96 331.353 1171.05 330.26C1172.16 329.167 1173.59 328.167 1175.35 327.26L1179.73 324.3ZM1231 331.34C1231 334.327 1230.34 336.58 1229.02 338.1C1227.7 339.62 1225.82 340.38 1223.4 340.38C1222.64 340.38 1221.92 340.307 1221.26 340.16C1220.6 340.027 1219.98 339.867 1219.38 339.68C1218.78 339.493 1218.2 339.333 1217.64 339.2C1217.09 339.053 1216.54 338.98 1215.98 338.98C1215.47 338.98 1214.96 339.06 1214.44 339.22C1213.92 339.367 1213.42 339.627 1212.96 340H1210.68L1211.78 334.22L1213.28 335.34C1213.78 334.74 1214.37 334.3 1215.04 334.02C1215.7 333.727 1216.45 333.58 1217.28 333.58C1217.78 333.58 1218.24 333.633 1218.66 333.74C1219.07 333.847 1219.46 333.973 1219.84 334.12C1220.21 334.253 1220.59 334.373 1220.98 334.48C1221.38 334.573 1221.8 334.62 1222.24 334.62C1223.14 334.62 1223.8 334.373 1224.22 333.88C1224.64 333.387 1224.86 332.54 1224.86 331.34H1231ZM1218.76 324.3C1220.17 323.327 1221.26 322.407 1222.02 321.54C1222.79 320.673 1223.18 319.707 1223.18 318.64C1223.18 317.933 1223 317.293 1222.66 316.72C1222.31 316.133 1221.8 315.673 1221.14 315.34C1220.47 314.993 1219.66 314.82 1218.7 314.82C1217.18 314.82 1215.98 315.253 1215.1 316.12C1214.22 316.973 1213.73 318.153 1213.64 319.66L1207.4 319.3C1207.5 317.193 1208.04 315.387 1209 313.88C1209.97 312.36 1211.29 311.193 1212.96 310.38C1214.62 309.567 1216.58 309.16 1218.82 309.16C1221.07 309.16 1223.01 309.573 1224.64 310.4C1226.26 311.213 1227.51 312.32 1228.38 313.72C1229.24 315.12 1229.68 316.687 1229.68 318.42C1229.68 319.807 1229.38 321.12 1228.8 322.36C1228.21 323.6 1227.32 324.773 1226.14 325.88C1224.95 326.973 1223.44 327.993 1221.62 328.94L1216.9 332C1215.78 332.573 1214.84 333.213 1214.1 333.92C1213.36 334.613 1212.82 335.453 1212.46 336.44C1212.1 337.413 1211.92 338.6 1211.92 340H1206.92V338.98C1206.92 337.1 1207.17 335.453 1207.68 334.04C1208.18 332.613 1208.98 331.353 1210.08 330.26C1211.18 329.167 1212.62 328.167 1214.38 327.26L1218.76 324.3ZM1258.54 331.34C1258.54 334.327 1257.88 336.58 1256.56 338.1C1255.24 339.62 1253.36 340.38 1250.94 340.38C1250.18 340.38 1249.46 340.307 1248.8 340.16C1248.14 340.027 1247.52 339.867 1246.92 339.68C1246.32 339.493 1245.74 339.333 1245.18 339.2C1244.63 339.053 1244.08 338.98 1243.52 338.98C1243.01 338.98 1242.5 339.06 1241.98 339.22C1241.46 339.367 1240.96 339.627 1240.5 340H1238.22L1239.32 334.22L1240.82 335.34C1241.32 334.74 1241.91 334.3 1242.58 334.02C1243.24 333.727 1243.99 333.58 1244.82 333.58C1245.32 333.58 1245.78 333.633 1246.2 333.74C1246.61 333.847 1247 333.973 1247.38 334.12C1247.75 334.253 1248.13 334.373 1248.52 334.48C1248.92 334.573 1249.34 334.62 1249.78 334.62C1250.68 334.62 1251.34 334.373 1251.76 333.88C1252.18 333.387 1252.4 332.54 1252.4 331.34H1258.54ZM1246.3 324.3C1247.71 323.327 1248.8 322.407 1249.56 321.54C1250.33 320.673 1250.72 319.707 1250.72 318.64C1250.72 317.933 1250.54 317.293 1250.2 316.72C1249.85 316.133 1249.34 315.673 1248.68 315.34C1248.01 314.993 1247.2 314.82 1246.24 314.82C1244.72 314.82 1243.52 315.253 1242.64 316.12C1241.76 316.973 1241.27 318.153 1241.18 319.66L1234.94 319.3C1235.04 317.193 1235.58 315.387 1236.54 313.88C1237.51 312.36 1238.83 311.193 1240.5 310.38C1242.16 309.567 1244.12 309.16 1246.36 309.16C1248.61 309.16 1250.55 309.573 1252.18 310.4C1253.8 311.213 1255.05 312.32 1255.92 313.72C1256.78 315.12 1257.22 316.687 1257.22 318.42C1257.22 319.807 1256.92 321.12 1256.34 322.36C1255.75 323.6 1254.86 324.773 1253.68 325.88C1252.49 326.973 1250.98 327.993 1249.16 328.94L1244.44 332C1243.32 332.573 1242.38 333.213 1241.64 333.92C1240.9 334.613 1240.36 335.453 1240 336.44C1239.64 337.413 1239.46 338.6 1239.46 340H1234.46V338.98C1234.46 337.1 1234.71 335.453 1235.22 334.04C1235.72 332.613 1236.52 331.353 1237.62 330.26C1238.72 329.167 1240.16 328.167 1241.92 327.26L1246.3 324.3ZM1298.52 309.64L1285.66 340H1278.6L1291.24 311.56L1292.36 309.64H1298.52ZM1278.92 314.32C1279 312.693 1279.31 311.467 1279.84 310.64C1280.39 309.813 1281.21 309.4 1282.32 309.4C1282.83 309.4 1283.33 309.467 1283.82 309.6C1284.33 309.733 1284.83 309.887 1285.34 310.06C1285.85 310.233 1286.37 310.387 1286.92 310.52C1287.48 310.653 1288.07 310.72 1288.68 310.72C1289.32 310.72 1290 310.633 1290.72 310.46C1291.44 310.273 1291.99 310 1292.36 309.64L1290.42 314.86L1289.74 314.52C1289.27 315.053 1288.77 315.46 1288.22 315.74C1287.67 316.007 1287.07 316.14 1286.4 316.14C1285.92 316.14 1285.45 316.087 1285 315.98C1284.55 315.873 1284.1 315.753 1283.66 315.62C1283.23 315.487 1282.82 315.367 1282.42 315.26C1282.02 315.153 1281.63 315.1 1281.26 315.1C1280.51 315.087 1279.91 315.327 1279.44 315.82C1278.97 316.313 1278.74 317.047 1278.74 318.02L1277.52 314.32H1278.92ZM1278.74 309.64V320.6H1272.5V309.64H1278.74ZM1323.18 331.34C1323.18 334.327 1322.52 336.58 1321.2 338.1C1319.88 339.62 1318.01 340.38 1315.58 340.38C1314.82 340.38 1314.11 340.307 1313.44 340.16C1312.79 340.027 1312.16 339.867 1311.56 339.68C1310.96 339.493 1310.38 339.333 1309.82 339.2C1309.28 339.053 1308.72 338.98 1308.16 338.98C1307.66 338.98 1307.14 339.06 1306.62 339.22C1306.1 339.367 1305.61 339.627 1305.14 340H1302.86L1303.96 334.22L1305.46 335.34C1305.97 334.74 1306.56 334.3 1307.22 334.02C1307.89 333.727 1308.64 333.58 1309.46 333.58C1309.97 333.58 1310.43 333.633 1310.84 333.74C1311.26 333.847 1311.65 333.973 1312.02 334.12C1312.4 334.253 1312.78 334.373 1313.16 334.48C1313.56 334.573 1313.98 334.62 1314.42 334.62C1315.33 334.62 1315.99 334.373 1316.4 333.88C1316.83 333.387 1317.04 332.54 1317.04 331.34H1323.18ZM1310.94 324.3C1312.36 323.327 1313.44 322.407 1314.2 321.54C1314.98 320.673 1315.36 319.707 1315.36 318.64C1315.36 317.933 1315.19 317.293 1314.84 316.72C1314.5 316.133 1313.99 315.673 1313.32 315.34C1312.66 314.993 1311.84 314.82 1310.88 314.82C1309.36 314.82 1308.16 315.253 1307.28 316.12C1306.4 316.973 1305.92 318.153 1305.82 319.66L1299.58 319.3C1299.69 317.193 1300.22 315.387 1301.18 313.88C1302.16 312.36 1303.48 311.193 1305.14 310.38C1306.81 309.567 1308.76 309.16 1311 309.16C1313.26 309.16 1315.2 309.573 1316.82 310.4C1318.45 311.213 1319.7 312.32 1320.56 313.72C1321.43 315.12 1321.86 316.687 1321.86 318.42C1321.86 319.807 1321.57 321.12 1320.98 322.36C1320.4 323.6 1319.51 324.773 1318.32 325.88C1317.14 326.973 1315.63 327.993 1313.8 328.94L1309.08 332C1307.96 332.573 1307.03 333.213 1306.28 333.92C1305.55 334.613 1305 335.453 1304.64 336.44C1304.28 337.413 1304.1 338.6 1304.1 340H1299.1V338.98C1299.1 337.1 1299.36 335.453 1299.86 334.04C1300.37 332.613 1301.17 331.353 1302.26 330.26C1303.37 329.167 1304.8 328.167 1306.56 327.26L1310.94 324.3ZM1350.29 340.48C1347.67 340.48 1345.44 339.853 1343.59 338.6C1341.73 337.347 1340.32 335.547 1339.35 333.2C1338.37 330.853 1337.89 328.04 1337.89 324.76C1337.89 321.52 1338.37 318.733 1339.35 316.4C1340.32 314.067 1341.73 312.28 1343.59 311.04C1345.44 309.787 1347.67 309.16 1350.29 309.16C1352.91 309.16 1355.15 309.787 1356.99 311.04C1358.84 312.28 1360.25 314.067 1361.23 316.4C1362.2 318.733 1362.69 321.52 1362.69 324.76C1362.69 328.04 1362.2 330.853 1361.23 333.2C1360.25 335.547 1358.84 337.347 1356.99 338.6C1355.15 339.853 1352.91 340.48 1350.29 340.48ZM1350.29 334.56C1352.29 334.56 1353.8 333.707 1354.83 332C1355.85 330.293 1356.37 327.88 1356.37 324.76C1356.37 321.653 1355.85 319.267 1354.83 317.6C1353.8 315.92 1352.29 315.08 1350.29 315.08C1348.29 315.08 1346.77 315.92 1345.75 317.6C1344.72 319.267 1344.21 321.653 1344.21 324.76C1344.21 327.88 1344.72 330.293 1345.75 332C1346.77 333.707 1348.29 334.56 1350.29 334.56ZM1378.84 340.48C1376.23 340.48 1374 339.853 1372.14 338.6C1370.29 337.347 1368.88 335.547 1367.9 333.2C1366.93 330.853 1366.44 328.04 1366.44 324.76C1366.44 321.52 1366.93 318.733 1367.9 316.4C1368.88 314.067 1370.29 312.28 1372.14 311.04C1374 309.787 1376.23 309.16 1378.84 309.16C1381.47 309.16 1383.7 309.787 1385.54 311.04C1387.4 312.28 1388.81 314.067 1389.78 316.4C1390.76 318.733 1391.24 321.52 1391.24 324.76C1391.24 328.04 1390.76 330.853 1389.78 333.2C1388.81 335.547 1387.4 337.347 1385.54 338.6C1383.7 339.853 1381.47 340.48 1378.84 340.48ZM1378.84 334.56C1380.84 334.56 1382.36 333.707 1383.38 332C1384.41 330.293 1384.92 327.88 1384.92 324.76C1384.92 321.653 1384.41 319.267 1383.38 317.6C1382.36 315.92 1380.84 315.08 1378.84 315.08C1376.84 315.08 1375.33 315.92 1374.3 317.6C1373.28 319.267 1372.76 321.653 1372.76 324.76C1372.76 327.88 1373.28 330.293 1374.3 332C1375.33 333.707 1376.84 334.56 1378.84 334.56Z" fill="black"/>
<g filter="url(#filter1_b_120_3436)">
<rect width="180" height="159" transform="matrix(-1 0 0 1 1451 691)" fill="url(#paint2_linear_120_3436)" fill-opacity="0.12"/>
<rect x="-1.5" y="1.5" width="177" height="156" transform="matrix(-1 0 0 1 1448 691)" stroke="url(#paint3_linear_120_3436)" stroke-opacity="0.4" stroke-width="3"/>
</g>
<g filter="url(#filter2_b_120_3436)">
<rect x="443" y="704" width="215" height="159" fill="url(#paint4_linear_120_3436)" fill-opacity="0.12"/>
<rect x="444.5" y="705.5" width="212" height="156" stroke="url(#paint5_linear_120_3436)" stroke-opacity="0.4" stroke-width="3"/>
</g>
<defs>
<filter id="filter0_b_120_3436" x="840" y="93" width="260" height="239" filterUnits="userSpaceOnUse" color-interpolation-filters="sRGB">
<feFlood flood-opacity="0" result="BackgroundImageFix"/>
<feGaussianBlur in="BackgroundImageFix" stdDeviation="20"/>
<feComposite in2="SourceAlpha" operator="in" result="effect1_backgroundBlur_120_3436"/>
<feBlend mode="normal" in="SourceGraphic" in2="effect1_backgroundBlur_120_3436" result="shape"/>
</filter>
<filter id="filter1_b_120_3436" x="1231" y="651" width="260" height="239" filterUnits="userSpaceOnUse" color-interpolation-filters="sRGB">
<feFlood flood-opacity="0" result="BackgroundImageFix"/>
<feGaussianBlur in="BackgroundImageFix" stdDeviation="20"/>
<feComposite in2="SourceAlpha" operator="in" result="effect1_backgroundBlur_120_3436"/>
<feBlend mode="normal" in="SourceGraphic" in2="effect1_backgroundBlur_120_3436" result="shape"/>
</filter>
<filter id="filter2_b_120_3436" x="403" y="664" width="295" height="239" filterUnits="userSpaceOnUse" color-interpolation-filters="sRGB">
<feFlood flood-opacity="0" result="BackgroundImageFix"/>
<feGaussianBlur in="BackgroundImageFix" stdDeviation="20"/>
<feComposite in2="SourceAlpha" operator="in" result="effect1_backgroundBlur_120_3436"/>
<feBlend mode="normal" in="SourceGraphic" in2="effect1_backgroundBlur_120_3436" result="shape"/>
</filter>
<linearGradient id="paint0_linear_120_3436" x1="90" y1="0" x2="90" y2="159" gradientUnits="userSpaceOnUse">
<stop stop-color="white"/>
<stop offset="1" stop-color="white" stop-opacity="0.46"/>
</linearGradient>
<linearGradient id="paint1_linear_120_3436" x1="-23.8605" y1="26.5" x2="109.41" y2="135.204" gradientUnits="userSpaceOnUse">
<stop stop-color="white"/>
<stop offset="1" stop-color="white" stop-opacity="0"/>
</linearGradient>
<linearGradient id="paint2_linear_120_3436" x1="90" y1="0" x2="90" y2="159" gradientUnits="userSpaceOnUse">
<stop stop-color="white"/>
<stop offset="1" stop-color="white" stop-opacity="0.46"/>
</linearGradient>
<linearGradient id="paint3_linear_120_3436" x1="-23.8605" y1="26.5" x2="232.52" y2="130.221" gradientUnits="userSpaceOnUse">
<stop stop-color="white"/>
<stop offset="1" stop-color="white" stop-opacity="0.4"/>
</linearGradient>
<linearGradient id="paint4_linear_120_3436" x1="550.5" y1="704" x2="550.5" y2="863" gradientUnits="userSpaceOnUse">
<stop stop-color="white"/>
<stop offset="1" stop-color="white" stop-opacity="0.46"/>
</linearGradient>
<linearGradient id="paint5_linear_120_3436" x1="414.5" y1="730.5" x2="658" y2="884" gradientUnits="userSpaceOnUse">
<stop stop-color="white"/>
<stop offset="1" stop-color="white" stop-opacity="0"/>
</linearGradient>
</defs>
</svg>
